<svg xmlns="http://www.w3.org/2000/svg" xmlns:xlink="http://www.w3.org/1999/xlink" width="512" zoomAndPan="magnify" viewBox="0 0 384 95.999999" height="128" preserveAspectRatio="xMidYMid meet" version="1.0"><defs><g/><clipPath id="667c0f7a96"><path d="M 0 0.636719 L 71.261719 0.636719 L 71.261719 73.480469 L 0 73.480469 Z M 0 0.636719 " clip-rule="nonzero"/></clipPath><clipPath id="8615fdabd7"><rect x="0" width="311" y="0" height="59"/></clipPath><clipPath id="275b58ddc8"><rect x="0" width="302" y="0" height="14"/></clipPath><clipPath id="ba426c1c58"><rect x="0" width="384" y="0" height="74"/></clipPath></defs><g transform="matrix(1, 0, 0, 1, 0, 11)"><g clip-path="url(#ba426c1c58)"><g clip-path="url(#667c0f7a96)"><path fill="#0072ff" d="M 36 29.527344 L 36 43.027344 C 36 43.367188 36.273438 43.640625 36.613281 43.640625 L 54.65625 43.640625 C 55.097656 43.640625 55.394531 44.09375 55.21875 44.5 C 52.179688 51.570312 45.351562 56.644531 37.300781 57.140625 C 24.871094 57.910156 14.449219 47.566406 15.125 35.132812 C 15.722656 24.136719 24.855469 15.371094 36 15.371094 C 42.050781 15.371094 47.75 17.964844 51.730469 22.507812 C 51.949219 22.757812 52.324219 22.789062 52.582031 22.578125 L 62.988281 13.96875 C 63.25 13.75 63.28125 13.355469 63.058594 13.09375 C 56.269531 5.171875 46.445312 0.644531 36 0.644531 C 26.480469 0.644531 17.53125 4.351562 10.800781 11.082031 C 4.070312 17.808594 0.363281 26.757812 0.363281 36.277344 C 0.363281 42.488281 1.945312 48.453125 4.910156 53.722656 C 4.988281 53.859375 5.011719 54.023438 4.96875 54.179688 L 0.125 72.464844 C 0.00390625 72.929688 0.4375 73.347656 0.898438 73.210938 L 18.894531 67.757812 C 19.046875 67.710938 19.214844 67.726562 19.355469 67.804688 C 24.425781 70.488281 30.101562 71.910156 36 71.910156 C 45.515625 71.910156 54.464844 68.203125 61.195312 61.472656 C 67.925781 54.742188 71.632812 45.796875 71.632812 36.277344 L 71.632812 29.527344 C 71.632812 29.1875 71.355469 28.914062 71.019531 28.914062 L 36.613281 28.914062 C 36.273438 28.914062 36 29.1875 36 29.527344 " fill-opacity="1" fill-rule="nonzero"/></g><g transform="matrix(1, 0, 0, 1, 73, 3)"><g clip-path="url(#8615fdabd7)"><g fill="#000000" fill-opacity="1"><g transform="translate(1.142639, 47.278078)"><g><path d="M 3.875 -15.71875 L 3.875 -23.46875 L 34.875 -23.46875 L 34.875 -15.71875 Z M 3.875 -15.71875 "/></g></g></g><g fill="#000000" fill-opacity="1"><g transform="translate(48.356128, 47.278078)"><g><path d="M 19.375 0 L 19.375 -31 L 3.875 -31 L 3.875 -38.75 L 42.625 -38.75 L 42.625 -31 L 27.125 -31 L 27.125 0 Z M 19.375 0 "/></g></g></g><g fill="#000000" fill-opacity="1"><g transform="translate(103.318468, 47.278078)"><g><path d="M 3.875 0 L 3.875 -38.75 L 34.875 -38.75 L 34.875 -31 L 11.625 -31 L 11.625 -15.5 L 34.875 -15.5 L 34.875 -7.75 L 11.625 -7.75 L 11.625 0 Z M 34.875 0 L 34.875 -7.75 L 42.625 -7.75 L 42.625 0 Z M 34.875 -15.5 L 34.875 -31 L 42.625 -31 L 42.625 -15.5 Z M 34.875 -15.5 "/></g></g></g><g fill="#000000" fill-opacity="1"><g transform="translate(158.280808, 47.278078)"><g><path d="M 3.875 0 L 3.875 -31 L 11.625 -31 L 11.625 -15.5 L 34.875 -15.5 L 34.875 -31 L 42.625 -31 L 42.625 0 L 34.875 0 L 34.875 -7.75 L 11.625 -7.75 L 11.625 0 Z M 11.625 -31 L 11.625 -38.75 L 34.875 -38.75 L 34.875 -31 Z M 11.625 -31 "/></g></g></g><g fill="#000000" fill-opacity="1"><g transform="translate(213.243149, 47.278078)"><g><path d="M 11.625 -31 L 11.625 -7.75 L 3.875 -7.75 L 3.875 -31 Z M 11.625 0 L 11.625 -7.75 L 42.625 -7.75 L 42.625 0 Z M 11.625 -31 L 11.625 -38.75 L 42.625 -38.75 L 42.625 -31 Z M 11.625 -31 "/></g></g></g><g fill="#000000" fill-opacity="1"><g transform="translate(268.205489, 47.278078)"><g><path d="M 3.875 0 L 3.875 -38.75 L 11.625 -38.75 L 11.625 -23.25 L 27.125 -23.25 L 27.125 -15.5 L 11.625 -15.5 L 11.625 0 Z M 27.125 -7.75 L 27.125 -15.5 L 34.875 -15.5 L 34.875 -7.75 Z M 27.125 -23.25 L 27.125 -31 L 34.875 -31 L 34.875 -23.25 Z M 34.875 0 L 34.875 -7.75 L 42.625 -7.75 L 42.625 0 Z M 34.875 -31 L 34.875 -38.75 L 42.625 -38.75 L 42.625 -31 Z M 34.875 -31 "/></g></g></g></g></g><g transform="matrix(1, 0, 0, 1, 82, 59)"><g clip-path="url(#275b58ddc8)"><g fill="#000000" fill-opacity="1"><g transform="translate(1.820398, 9.944207)"><g><path d="M 4.21875 0 L 4.21875 -6.75 L 0.84375 -6.75 L 0.84375 -8.4375 L 9.28125 -8.4375 L 9.28125 -6.75 L 5.90625 -6.75 L 5.90625 0 Z M 4.21875 0 "/></g></g></g><g fill="#000000" fill-opacity="1"><g transform="translate(13.386439, 9.944207)"><g><path d="M 0.84375 0 L 0.84375 -8.4375 L 7.59375 -8.4375 L 7.59375 -6.75 L 2.53125 -6.75 L 2.53125 -3.375 L 7.59375 -3.375 L 7.59375 -1.6875 L 2.53125 -1.6875 L 2.53125 0 Z M 7.59375 0 L 7.59375 -1.6875 L 9.28125 -1.6875 L 9.28125 0 Z M 7.59375 -3.375 L 7.59375 -6.75 L 9.28125 -6.75 L 9.28125 -3.375 Z M 7.59375 -3.375 "/></g></g></g><g fill="#000000" fill-opacity="1"><g transform="translate(24.95248, 9.944207)"><g><path d="M 0.84375 0 L 0.84375 -6.75 L 2.53125 -6.75 L 2.53125 -3.375 L 7.59375 -3.375 L 7.59375 -6.75 L 9.28125 -6.75 L 9.28125 0 L 7.59375 0 L 7.59375 -1.6875 L 2.53125 -1.6875 L 2.53125 0 Z M 2.53125 -6.75 L 2.53125 -8.4375 L 7.59375 -8.4375 L 7.59375 -6.75 Z M 2.53125 -6.75 "/></g></g></g><g fill="#000000" fill-opacity="1"><g transform="translate(36.51852, 9.944207)"><g><path d="M 7.59375 0 L 7.59375 -1.6875 L 5.90625 -1.6875 L 5.90625 -3.375 L 7.59375 -3.375 L 7.59375 -8.4375 L 9.28125 -8.4375 L 9.28125 0 Z M 0.84375 0 L 0.84375 -8.4375 L 2.53125 -8.4375 L 2.53125 -6.75 L 4.21875 -6.75 L 4.21875 -5.0625 L 2.53125 -5.0625 L 2.53125 0 Z M 4.21875 -3.375 L 4.21875 -5.0625 L 5.90625 -5.0625 L 5.90625 -3.375 Z M 4.21875 -3.375 "/></g></g></g><g fill="#000000" fill-opacity="1"><g transform="translate(48.084561, 9.944207)"><g><path d="M 2.53125 -6.75 L 2.53125 -5.0625 L 0.84375 -5.0625 L 0.84375 -6.75 Z M 0.84375 0 L 0.84375 -1.6875 L 7.59375 -1.6875 L 7.59375 0 Z M 2.53125 -3.375 L 2.53125 -5.0625 L 7.59375 -5.0625 L 7.59375 -3.375 Z M 2.53125 -6.75 L 2.53125 -8.4375 L 9.28125 -8.4375 L 9.28125 -6.75 Z M 7.59375 -1.6875 L 7.59375 -3.375 L 9.28125 -3.375 L 9.28125 -1.6875 Z M 7.59375 -1.6875 "/></g></g></g><g fill="#000000" fill-opacity="1"><g transform="translate(59.650602, 9.944207)"><g><path d="M 0.84375 0 L 0.84375 -8.4375 L 7.59375 -8.4375 L 7.59375 -6.75 L 2.53125 -6.75 L 2.53125 -3.375 L 7.59375 -3.375 L 7.59375 -1.6875 L 2.53125 -1.6875 L 2.53125 0 Z M 7.59375 -3.375 L 7.59375 -6.75 L 9.28125 -6.75 L 9.28125 -3.375 Z M 7.59375 -3.375 "/></g></g></g><g fill="#000000" fill-opacity="1"><g transform="translate(71.216643, 9.944207)"><g><path d="M 7.59375 -1.6875 L 7.59375 0 L 2.53125 0 L 2.53125 -1.6875 Z M 0.84375 -1.6875 L 0.84375 -6.75 L 2.53125 -6.75 L 2.53125 -1.6875 Z M 2.53125 -6.75 L 2.53125 -8.4375 L 7.59375 -8.4375 L 7.59375 -6.75 Z M 7.59375 -1.6875 L 7.59375 -6.75 L 9.28125 -6.75 L 9.28125 -1.6875 Z M 7.59375 -1.6875 "/></g></g></g><g fill="#000000" fill-opacity="1"><g transform="translate(82.782684, 9.944207)"><g><path d="M 0.84375 0 L 0.84375 -8.4375 L 7.59375 -8.4375 L 7.59375 -6.75 L 2.53125 -6.75 L 2.53125 -3.375 L 7.59375 -3.375 L 7.59375 -1.6875 L 2.53125 -1.6875 L 2.53125 0 Z M 7.59375 0 L 7.59375 -1.6875 L 9.28125 -1.6875 L 9.28125 0 Z M 7.59375 -3.375 L 7.59375 -6.75 L 9.28125 -6.75 L 9.28125 -3.375 Z M 7.59375 -3.375 "/></g></g></g><g fill="#000000" fill-opacity="1"><g transform="translate(94.348725, 9.944207)"><g><path d="M 4.21875 0 L 4.21875 -6.75 L 0.84375 -6.75 L 0.84375 -8.4375 L 9.28125 -8.4375 L 9.28125 -6.75 L 5.90625 -6.75 L 5.90625 0 Z M 4.21875 0 "/></g></g></g><g fill="#000000" fill-opacity="1"><g transform="translate(105.914766, 9.944207)"><g/></g></g><g fill="#000000" fill-opacity="1"><g transform="translate(112.420653, 9.944207)"><g><path d="M 7.59375 0 L 7.59375 -5.0625 L 5.90625 -5.0625 L 5.90625 -6.75 L 7.59375 -6.75 L 7.59375 -8.4375 L 9.28125 -8.4375 L 9.28125 0 Z M 0.84375 0 L 0.84375 -8.4375 L 2.53125 -8.4375 L 2.53125 -6.75 L 4.21875 -6.75 L 4.21875 -5.0625 L 2.53125 -5.0625 L 2.53125 0 Z M 4.21875 -3.375 L 4.21875 -5.0625 L 5.90625 -5.0625 L 5.90625 -3.375 Z M 4.21875 -3.375 "/></g></g></g><g fill="#000000" fill-opacity="1"><g transform="translate(123.986694, 9.944207)"><g><path d="M 0.84375 0 L 0.84375 -6.75 L 2.53125 -6.75 L 2.53125 -3.375 L 7.59375 -3.375 L 7.59375 -6.75 L 9.28125 -6.75 L 9.28125 0 L 7.59375 0 L 7.59375 -1.6875 L 2.53125 -1.6875 L 2.53125 0 Z M 2.53125 -6.75 L 2.53125 -8.4375 L 7.59375 -8.4375 L 7.59375 -6.75 Z M 2.53125 -6.75 "/></g></g></g><g fill="#000000" fill-opacity="1"><g transform="translate(135.552735, 9.944207)"><g><path d="M 7.59375 0 L 7.59375 -1.6875 L 5.90625 -1.6875 L 5.90625 -3.375 L 7.59375 -3.375 L 7.59375 -8.4375 L 9.28125 -8.4375 L 9.28125 0 Z M 0.84375 0 L 0.84375 -8.4375 L 2.53125 -8.4375 L 2.53125 -6.75 L 4.21875 -6.75 L 4.21875 -5.0625 L 2.53125 -5.0625 L 2.53125 0 Z M 4.21875 -3.375 L 4.21875 -5.0625 L 5.90625 -5.0625 L 5.90625 -3.375 Z M 4.21875 -3.375 "/></g></g></g><g fill="#000000" fill-opacity="1"><g transform="translate(147.118776, 9.944207)"><g><path d="M 0.84375 0 L 0.84375 -6.75 L 2.53125 -6.75 L 2.53125 -3.375 L 7.59375 -3.375 L 7.59375 -6.75 L 9.28125 -6.75 L 9.28125 0 L 7.59375 0 L 7.59375 -1.6875 L 2.53125 -1.6875 L 2.53125 0 Z M 2.53125 -6.75 L 2.53125 -8.4375 L 7.59375 -8.4375 L 7.59375 -6.75 Z M 2.53125 -6.75 "/></g></g></g><g fill="#000000" fill-opacity="1"><g transform="translate(158.684817, 9.944207)"><g><path d="M 2.53125 0 L 2.53125 -1.6875 L 7.59375 -1.6875 L 7.59375 -3.375 L 4.21875 -3.375 L 4.21875 -5.0625 L 9.28125 -5.0625 L 9.28125 0 Z M 0.84375 -1.6875 L 0.84375 -6.75 L 2.53125 -6.75 L 2.53125 -1.6875 Z M 2.53125 -6.75 L 2.53125 -8.4375 L 9.28125 -8.4375 L 9.28125 -6.75 Z M 2.53125 -6.75 "/></g></g></g><g fill="#000000" fill-opacity="1"><g transform="translate(170.250858, 9.944207)"><g><path d="M 0.84375 0 L 0.84375 -8.4375 L 9.28125 -8.4375 L 9.28125 -6.75 L 2.53125 -6.75 L 2.53125 -5.0625 L 7.59375 -5.0625 L 7.59375 -3.375 L 2.53125 -3.375 L 2.53125 -1.6875 L 9.28125 -1.6875 L 9.28125 0 Z M 0.84375 0 "/></g></g></g><g fill="#000000" fill-opacity="1"><g transform="translate(181.816899, 9.944207)"><g><path d="M 7.59375 0 L 7.59375 -5.0625 L 5.90625 -5.0625 L 5.90625 -6.75 L 7.59375 -6.75 L 7.59375 -8.4375 L 9.28125 -8.4375 L 9.28125 0 Z M 0.84375 0 L 0.84375 -8.4375 L 2.53125 -8.4375 L 2.53125 -6.75 L 4.21875 -6.75 L 4.21875 -5.0625 L 2.53125 -5.0625 L 2.53125 0 Z M 4.21875 -3.375 L 4.21875 -5.0625 L 5.90625 -5.0625 L 5.90625 -3.375 Z M 4.21875 -3.375 "/></g></g></g><g fill="#000000" fill-opacity="1"><g transform="translate(193.38294, 9.944207)"><g><path d="M 0.84375 0 L 0.84375 -8.4375 L 9.28125 -8.4375 L 9.28125 -6.75 L 2.53125 -6.75 L 2.53125 -5.0625 L 7.59375 -5.0625 L 7.59375 -3.375 L 2.53125 -3.375 L 2.53125 -1.6875 L 9.28125 -1.6875 L 9.28125 0 Z M 0.84375 0 "/></g></g></g><g fill="#000000" fill-opacity="1"><g transform="translate(204.948981, 9.944207)"><g><path d="M 7.59375 0 L 7.59375 -1.6875 L 5.90625 -1.6875 L 5.90625 -3.375 L 7.59375 -3.375 L 7.59375 -8.4375 L 9.28125 -8.4375 L 9.28125 0 Z M 0.84375 0 L 0.84375 -8.4375 L 2.53125 -8.4375 L 2.53125 -6.75 L 4.21875 -6.75 L 4.21875 -5.0625 L 2.53125 -5.0625 L 2.53125 0 Z M 4.21875 -3.375 L 4.21875 -5.0625 L 5.90625 -5.0625 L 5.90625 -3.375 Z M 4.21875 -3.375 "/></g></g></g><g fill="#000000" fill-opacity="1"><g transform="translate(216.515022, 9.944207)"><g><path d="M 4.21875 0 L 4.21875 -6.75 L 0.84375 -6.75 L 0.84375 -8.4375 L 9.28125 -8.4375 L 9.28125 -6.75 L 5.90625 -6.75 L 5.90625 0 Z M 4.21875 0 "/></g></g></g><g fill="#000000" fill-opacity="1"><g transform="translate(228.081062, 9.944207)"><g/></g></g><g fill="#000000" fill-opacity="1"><g transform="translate(234.58695, 9.944207)"><g><path d="M 2.53125 -6.75 L 2.53125 -5.0625 L 0.84375 -5.0625 L 0.84375 -6.75 Z M 0.84375 0 L 0.84375 -1.6875 L 7.59375 -1.6875 L 7.59375 0 Z M 2.53125 -3.375 L 2.53125 -5.0625 L 7.59375 -5.0625 L 7.59375 -3.375 Z M 2.53125 -6.75 L 2.53125 -8.4375 L 9.28125 -8.4375 L 9.28125 -6.75 Z M 7.59375 -1.6875 L 7.59375 -3.375 L 9.28125 -3.375 L 9.28125 -1.6875 Z M 7.59375 -1.6875 "/></g></g></g><g fill="#000000" fill-opacity="1"><g transform="translate(246.152991, 9.944207)"><g><path d="M 4.21875 0 L 4.21875 -3.375 L 5.90625 -3.375 L 5.90625 0 Z M 0.84375 -5.0625 L 0.84375 -8.4375 L 2.53125 -8.4375 L 2.53125 -5.0625 Z M 2.53125 -3.375 L 2.53125 -5.0625 L 4.21875 -5.0625 L 4.21875 -3.375 Z M 5.90625 -3.375 L 5.90625 -5.0625 L 7.59375 -5.0625 L 7.59375 -3.375 Z M 7.59375 -5.0625 L 7.59375 -8.4375 L 9.28125 -8.4375 L 9.28125 -5.0625 Z M 7.59375 -5.0625 "/></g></g></g><g fill="#000000" fill-opacity="1"><g transform="translate(257.719032, 9.944207)"><g><path d="M 2.53125 -6.75 L 2.53125 -5.0625 L 0.84375 -5.0625 L 0.84375 -6.75 Z M 0.84375 0 L 0.84375 -1.6875 L 7.59375 -1.6875 L 7.59375 0 Z M 2.53125 -3.375 L 2.53125 -5.0625 L 7.59375 -5.0625 L 7.59375 -3.375 Z M 2.53125 -6.75 L 2.53125 -8.4375 L 9.28125 -8.4375 L 9.28125 -6.75 Z M 7.59375 -1.6875 L 7.59375 -3.375 L 9.28125 -3.375 L 9.28125 -1.6875 Z M 7.59375 -1.6875 "/></g></g></g><g fill="#000000" fill-opacity="1"><g transform="translate(269.285073, 9.944207)"><g><path d="M 4.21875 0 L 4.21875 -6.75 L 0.84375 -6.75 L 0.84375 -8.4375 L 9.28125 -8.4375 L 9.28125 -6.75 L 5.90625 -6.75 L 5.90625 0 Z M 4.21875 0 "/></g></g></g><g fill="#000000" fill-opacity="1"><g transform="translate(280.851129, 9.944207)"><g><path d="M 0.84375 0 L 0.84375 -8.4375 L 9.28125 -8.4375 L 9.28125 -6.75 L 2.53125 -6.75 L 2.53125 -5.0625 L 7.59375 -5.0625 L 7.59375 -3.375 L 2.53125 -3.375 L 2.53125 -1.6875 L 9.28125 -1.6875 L 9.28125 0 Z M 0.84375 0 "/></g></g></g><g fill="#000000" fill-opacity="1"><g transform="translate(292.417154, 9.944207)"><g><path d="M 7.59375 0 L 7.59375 -5.0625 L 5.90625 -5.0625 L 5.90625 -6.75 L 7.59375 -6.75 L 7.59375 -8.4375 L 9.28125 -8.4375 L 9.28125 0 Z M 0.84375 0 L 0.84375 -8.4375 L 2.53125 -8.4375 L 2.53125 -6.75 L 4.21875 -6.75 L 4.21875 -5.0625 L 2.53125 -5.0625 L 2.53125 0 Z M 4.21875 -3.375 L 4.21875 -5.0625 L 5.90625 -5.0625 L 5.90625 -3.375 Z M 4.21875 -3.375 "/></g></g></g></g></g></g></g></svg>