<svg xmlns="http://www.w3.org/2000/svg" xmlns:xlink="http://www.w3.org/1999/xlink" width="500" zoomAndPan="magnify" viewBox="0 0 375 374.999991" height="500" preserveAspectRatio="xMidYMid meet" version="1.0"><defs><clipPath id="0c66e0c333"><path d="M 3 0 L 372.5625 0 L 372.5625 375 L 3 375 Z M 3 0 " clip-rule="nonzero"/></clipPath></defs><g clip-path="url(#0c66e0c333)"><path fill="#0072ff" d="M 188.449219 148.988281 L 188.449219 218.609375 C 188.449219 220.355469 189.867188 221.773438 191.617188 221.773438 L 284.660156 221.773438 C 286.9375 221.773438 288.46875 224.109375 287.566406 226.203125 C 271.90625 262.671875 236.683594 288.835938 195.175781 291.398438 C 131.070312 295.359375 77.324219 242.023438 80.804688 177.890625 C 83.882812 121.183594 130.988281 75.992188 188.449219 75.992188 C 219.664062 75.992188 249.054688 89.367188 269.574219 112.789062 C 270.703125 114.082031 272.652344 114.242188 273.96875 113.148438 L 327.628906 68.753906 C 328.992188 67.625 329.15625 65.59375 328 64.238281 C 292.996094 23.398438 242.324219 0.0429688 188.449219 0.0429688 C 139.371094 0.0429688 93.222656 19.15625 58.515625 53.863281 C 23.808594 88.570312 4.695312 134.714844 4.695312 183.796875 C 4.695312 215.824219 12.839844 246.59375 28.132812 273.753906 C 28.535156 274.46875 28.648438 275.316406 28.4375 276.113281 L 3.460938 370.417969 C 2.828125 372.8125 5.066406 374.972656 7.4375 374.257812 L 100.242188 346.144531 C 101.039062 345.90625 101.898438 345.992188 102.636719 346.378906 C 128.765625 360.214844 158.042969 367.558594 188.449219 367.558594 C 237.535156 367.558594 283.679688 348.441406 318.390625 313.734375 C 353.097656 279.023438 372.210938 232.882812 372.210938 183.796875 L 372.210938 148.988281 C 372.210938 147.242188 370.792969 145.824219 369.042969 145.824219 L 191.617188 145.824219 C 189.867188 145.824219 188.449219 147.242188 188.449219 148.988281 " fill-opacity="1" fill-rule="nonzero"/></g></svg>